 <!-- <svg xmlns="http://www.w3.org/2000/svg" version="1.1" xlink="http://www.w3.org/1999/xlink" xmlns:svgjs="http://svgjs.com/svgjs" width="24" height="24" viewBox="5 5 90 90">
  <g stroke="#d61111" stroke-width="1.8349112860948855px">
    <g fill="#303030">
      <path d="M21.719 5L5 21.719V78.28L21.719 95h56.563L95 78.281V21.72L78.282 5zm1.5 3.125h53.563l15.093 15.094V76.78L76.782 91.875H23.219L8.125 76.781V23.22z">

      </path>

    </g>
     <g fill="#d0021b"  >
            <path d="M36.703 11.011L9.638 26.636v12.121l27.065-15.626 27.064 15.626V26.636zm26.595 78.081L36.233 73.467V61.348l27.065 15.625 27.064-15.625v12.119z">
            </path>
            <path d="M9.638 42.012l27.065-15.626 10.495 6.06-27.064 15.626v31.252l-10.496-6.06zm67.445-23.14L50.018 3.247l-10.496 6.06 27.064 15.625v31.252l10.497-6.06z">
            </path>
            <path d="M23.01 81.127l.001-31.251 10.496-6.06v31.252l27.064 15.625-10.496 6.061zm67.352-23.035V26.84l-10.496-6.06v31.251L52.802 67.658l10.496 6.061z">
            </path>
          </g>
  </g>
  </svg> -->

 <svg xmlns="http://www.w3.org/2000/svg" version="1.1" xlink="http://www.w3.org/1999/xlink" xmlns:svgjs="http://svgjs.com/svgjs" width="60" height="70" viewBox="0 0 312.5 312.5" class="looka-1j8o68f">
    <defs id="SvgjsDefs1534"></defs>
    <g id="SvgjsG1535" featurekey="rootContainer" transform="matrix(2.94811320754717,0,0,2.94811320754717,0,0)"
        fill="#d61111">
        <rect xmlns="http://www.w3.org/2000/svg" width="106" height="106" rx="15" ry="15"></rect>
    </g>
    <g id="SvgjsG1536" featurekey="symbolFeature-0"
        transform="matrix(0.10079374923725279,0,0,0.10079374923725279,105.60816537643358,74.547572854805)"
        fill="#ffe6eb">
        <g xmlns="http://www.w3.org/2000/svg">
            <g>
                <path
                    d="M371,409c-30.6,0-55.5,24.6-56,55.1c-14.4,7.7-28.5,15-42.8,22c-12.3,6.1-15.5,13.7-15.8,26.5    c-1.5,62.1-3.9,124.2-6,186.3c-0.4,12.7-0.8,25.4-1.4,42.7c-13.2-7.5-21.8-13.5-31.2-17.6c-25.8-11.2-34.5-29.1-31.8-57.7    c4.2-43.6,3.7-87.6,5.3-135.5c-13.7,6.9-23.3,13-33.7,16.7c-20.9,7.4-27,21.3-26.6,43c0.6,38.4-0.9,76.9-3.8,115.1    c-1.6,21.2,3,34.8,23.2,45.1c25.3,13,48.7,29.8,73,44.8c25.3,15.7,50.7,31.3,79.7,49.2c0.5-13.7,0.8-22.5,1-31.2    c2.7-79.2,7.1-158.5,7.1-237.7c0-29.9,6.4-50.5,31.3-62.7c8.4,5,18.2,7.9,28.6,7.9c30.9,0,56-25.1,56-56S401.9,409,371,409z     M371,496c-0.2,0-0.3,0-0.4,0h0c-16.9-0.2-30.5-14-30.5-31c0-6.3,1.9-12.1,5.1-17c0,0,0,0,0,0c5.5-8.4,15.1-14,25.9-14h0.1    c2.9,0,5.6,0.4,8.3,1.1c13,3.7,22.6,15.7,22.6,29.9C402,482.1,388.1,496,371,496z">
                </path>
                <path
                    d="M462,307c-11,0-21.2,3.2-29.9,8.7c-10.7-6.9-21.1-13.8-31.5-20.8c-11.3-7.7-19.6-6.8-30.9-0.8    c-54.8,29.2-110.1,57.5-165.3,86.1c-11.3,5.9-22.5,11.7-37.9,19.7c0.1-15.2,1.1-25.6,0.1-35.8c-2.9-27.9,8.4-44.4,34.7-56    c40-17.7,78.1-39.7,120.7-61.8c-12.7-8.6-22.7-13.9-31.1-21.2c-16.7-14.6-31.8-13.1-50.5-2.1c-33.1,19.4-67.4,36.9-102.2,53.1    c-19.2,9-28.9,19.7-28,42.3c1.1,28.5-2.1,57-3.3,85.6c-1.3,29.8-2.4,59.6-3.8,93.6c12.1-6.3,19.9-10.3,27.7-14.4    c70.3-36.5,141.6-71.5,210.6-110.4c24-13.5,43.7-18.4,64.5-6.9v0c1.4,29.6,26,53.3,55.9,53.3c30.9,0,56-25.1,56-56    S492.9,307,462,307z M492.9,365.8c-1.4,15.8-14.7,28.2-30.9,28.2c-8.3,0-15.9-3.3-21.5-8.7c-5.9-5.6-9.5-13.6-9.5-22.3    c0-15.8,11.8-28.8,27.1-30.8c1.3-0.2,2.6-0.3,3.9-0.3c13.7,0,25.4,9,29.5,21.4c1,3,1.5,6.3,1.5,9.6    C493,363.9,493,364.9,492.9,365.8z">
                </path>
            </g>
            <path
                d="M677,824.7c-67.8-41.2-134.6-83.9-203.7-122.7c-25.9-14.6-40.7-30.1-39.3-57.4c18.8-9,31.8-28.3,31.8-50.5   c0-30.9-25.1-56-56-56s-56,25.1-56,56c0,19.1,9.6,35.9,24.2,46c-0.4,17.7-0.9,34.8-1.8,51.8c-0.7,13.7,4.3,20.3,15.3,26.8   c53.4,31.7,106.3,64.3,159.4,96.5c10.8,6.6,21.7,13.2,36.5,22.2c-13,7.8-22.5,12.3-30.6,18.5c-22.4,17-42.3,15.8-65.9-0.6   c-35.9-25-74.5-46.1-115.5-71c-0.7,15.3-0.1,26.7-2,37.6c-3.8,21.8,5.3,33.9,24.4,44.3c33.7,18.3,66.5,38.5,98.5,59.8   c17.7,11.8,31.8,14.4,50.7,1.9c23.8-15.7,49.9-27.8,74.9-41.6c26.1-14.4,52.2-28.8,82-45.3C692,833.8,684.5,829.2,677,824.7z    M409.8,625.1c-16.7,0-30.4-13.3-31-29.9v0c0-0.4,0-0.7,0-1.1c0-0.7,0-1.3,0.1-2c0,0,0-0.1,0-0.1v-0.1c0.5-6.6,3-12.6,6.9-17.4   c5.7-7,14.3-11.4,24-11.4c17.1,0,31,13.9,31,31c0,7.4-2.6,14.3-7,19.6C428,620.7,419.4,625.1,409.8,625.1z">
            </path>
            <path
                d="M896.8,489.8c-11.9,6.7-19.6,11-27.2,15.3c-69.1,38.9-139.1,76.2-206.8,117.4c-24.6,15-44.9,20.4-67.3,7.4   c0.2-1.9,0.3-3.8,0.3-5.8c0-30.9-25.1-56-56-56s-56,25.1-56,56c0,30.9,25.1,56,56,56c8,0,15.6-1.7,22.5-4.7h0   c15.1,9,29.7,17.8,44.1,26.9c11.6,7.3,19.8,6.2,30.9-0.2c53.8-31,108.1-61.2,162.3-91.6c11.1-6.2,22.1-12.5,37.2-20.9   c0.4,15.2-0.3,25.6,1.1,35.8c3.8,27.8-6.9,44.6-32.8,57.2c-39.4,19.1-76.7,42.3-118.5,65.9c13,8.1,23.2,13.2,31.8,20.2   c17.2,14,32.2,12,50.5,0.4c32.4-20.5,66.1-39.2,100.4-56.5c18.9-9.6,28.2-20.7,26.5-43.2c-2-28.4,0.2-57.1,0.4-85.7   C896.4,553.6,896.5,523.8,896.8,489.8z M539.8,655.1c-13.2,0-24.5-8.3-29-20c-1.3-3.4-2-7.1-2-11c0-17.1,13.9-31,31-31   c13.7,0,25.4,9,29.5,21.3c1,3,1.5,6.3,1.5,9.7C570.8,641.2,556.8,655.1,539.8,655.1z">
            </path>
            <path
                d="M865.9,397.8c-1.9-38.3-1.7-76.8-0.1-115.2c0.9-21.2-4.2-34.7-24.7-44.3c-25.8-12.1-49.7-28.1-74.5-42.4   c-25.8-14.9-51.8-29.6-81.3-46.5c0,13.7,0,22.5,0,31.3c0,79.3-1.8,158.6,0.9,237.8c1,28-4,48-24.7,61.1c-8.2-4.7-17.8-7.5-27.9-7.5   c-30.9,0-56,25.1-56,56c0,30.9,25.1,56,56,56c30.9,0,56-25.1,56-55.9c12.9-7.4,25.6-14.6,38.5-21.4c12.1-6.5,15.1-14.2,14.9-27   c-0.6-62.1-0.3-124.2-0.3-186.3v-42.7c13.4,7.1,22.2,12.8,31.7,16.5c26.1,10.3,35.5,27.9,33.7,56.6c-2.7,43.7-0.7,87.6-0.7,135.6   c13.4-7.3,22.8-13.8,33.2-17.8C861.4,433.5,867,419.4,865.9,397.8z M659.1,545.9c-5.1,7.2-13.1,12.1-22.3,13c-1,0.1-2,0.1-3,0.1   c-3.9,0-7.6-0.7-11-2c-11.7-4.4-20-15.8-20-29c0-16.6,13.1-30.2,29.5-31h0c0.5,0,1,0,1.5,0c17.1,0,31,13.9,31,31   C664.8,534.7,662.7,540.9,659.1,545.9z">
            </path>
            <path
                d="M627.3,356.9c0.9-14.9,1.9-29.5,3.1-44c1.2-13.6-3.6-20.4-14.4-27.3c-52.3-33.5-104.1-67.8-156.1-101.8   c-10.6-7-21.3-13.9-35.7-23.4c13.3-7.4,22.9-11.6,31.2-17.5c23-16.2,42.8-14.4,65.9,2.8c35.1,26.2,72.9,48.6,113,74.9   c1.2-15.3,1-26.6,3.3-37.5c4.5-21.7-4.2-34.1-22.9-45c-33.1-19.4-65.2-40.7-96.4-63c-17.2-12.4-31.3-15.5-50.6-3.6   c-24.3,14.9-50.8,26.2-76.2,39.1c-26.6,13.5-53.1,27.1-83.4,42.5c11.4,7.5,18.8,12.3,26.2,17.1c66.3,43.4,131.7,88.4,199.5,129.5   c24.1,14.7,38.2,29.9,37.6,54.7c-17.9,9.3-30.2,28.1-30.2,49.7c0,30.9,25.1,56,56,56s56-25.1,56-56   C653,384.3,642.7,366.9,627.3,356.9z M624,419.3c-2.2,3.8-5.1,7.1-8.7,9.7c-5.1,3.8-11.5,6-18.3,6c-17.1,0-31-13.9-31-31   c0-5.6,1.5-10.8,4-15.3c5.3-9.4,15.4-15.7,27-15.7c12.7,0,23.6,7.6,28.4,18.6c1.7,3.8,2.6,8,2.6,12.4   C628,409.6,626.5,414.8,624,419.3z">
            </path>
        </g>
    </g>
    <g id="SvgjsG1537" featurekey="nameFeature-0"
        transform="matrix(1.3960045716934382,0,0,1.3960045716934382,55.99999800299944,175.43084717236968)"
        fill="#ffe6eb">
        <path
            d="M17.12 40 l0 -21 l-5.4 13.28 l-3.12 -0.04 l-5.24 -13.16 l0 20.92 l-3.36 0 l0 -30 l3.24 0 l6.96 17.24 l7.04 -17.24 l3.24 0 l0 30 l-3.36 0 z M31.971 40.36 c-2.5067 0 -4.3932 -0.70668 -5.66 -2.12 s-1.9 -3.48 -1.9 -6.2 l0 -14 c0 -2.7467 0.64 -4.82 1.92 -6.22 s3.32 -2.1 6.12 -2.1 c2.56 0 4.4668 0.70668 5.72 2.12 s1.88 3.4533 1.88 6.12 l0 14.08 c0 2.7467 -0.61332 4.82 -1.84 6.22 s-3.3067 2.1 -6.24 2.1 z M36.611000000000004 17.92 c0 -0.58668 -0.07328 -1.1667 -0.21996 -1.74 s-0.38 -1.0866 -0.7 -1.54 s-0.74668 -0.82 -1.28 -1.1 s-1.2 -0.42 -2 -0.42 c-0.90668 0 -1.6534 0.12 -2.24 0.36 s-1.0534 0.59332 -1.4 1.06 s-0.58668 1.02 -0.72 1.66 s-0.2 1.36 -0.2 2.16 l0 13.48 c0 0.61332 0.06668 1.22 0.2 1.82 s0.35332 1.14 0.66 1.62 s0.72668 0.86668 1.26 1.16 s1.2 0.44 2 0.44 c0.90668 0 1.66 -0.11332 2.26 -0.34 s1.0733 -0.55336 1.42 -0.98004 s0.59336 -0.94668 0.74004 -1.56 s0.22 -1.2933 0.22 -2.04 l0 -14.04 z M51.422 40.36 c-1.3333 0 -2.5199 -0.2 -3.5599 -0.6 s-1.9 -1.0267 -2.58 -1.88 s-1.18 -1.96 -1.5 -3.32 s-0.44 -2.9867 -0.36 -4.88 l3.68 0 c0 0.96 0.02668 1.8867 0.08 2.78 s0.20664 1.68 0.45996 2.36 s0.64664 1.22 1.18 1.62 s1.2933 0.6 2.28 0.6 c0.85332 0 1.5666 -0.12668 2.14 -0.38 s1.0333 -0.59332 1.38 -1.02 s0.59336 -0.93336 0.74004 -1.52 s0.22 -1.2134 0.22 -1.88 c-0.02668 -1.44 -0.5 -2.5867 -1.42 -3.44 s-2.1 -1.5866 -3.54 -2.2 c-1.1733 -0.48 -2.22 -0.96668 -3.14 -1.46 s-1.6867 -1.06 -2.3 -1.7 s-1.08 -1.3867 -1.4 -2.24 s-0.48 -1.9066 -0.48 -3.16 c0 -2.7733 0.70668 -4.8532 2.12 -6.24 s3.4133 -2.08 6 -2.08 c2.2667 0 4.06 0.70668 5.38 2.12 s1.98 3.48 1.98 6.2 l0 2.84 l-3.52 0 l0 -3.04 c0 -1.44 -0.31332 -2.6 -0.94 -3.48 s-1.62 -1.32 -2.98 -1.32 c-1.68 0 -2.8667 0.44 -3.56 1.32 s-1.0133 2.12 -0.96 3.72 c0.02668 0.66668 0.14 1.24 0.34 1.72 s0.48668 0.9 0.86 1.26 s0.82664 0.69332 1.36 1 s1.16 0.62 1.88 0.94 c0.88 0.4 1.7533 0.82668 2.62 1.28 s1.6734 1 2.42 1.64 c0.77332 0.69332 1.4266 1.5333 1.96 2.52 s0.8 2.1867 0.8 3.6 c0 2.72 -0.68 4.7868 -2.04 6.2 s-3.2267 2.12 -5.6 2.12 z M73.713 10.52 l-0.24 -0.52 l0.68 0 l2.24 0 l0 0.44 l4.92 21.52 l4.6 -21.96 l3.64 0 l-6.84 30 l-3.12 0 l-4.56 -22.28 l-4.52 22.28 l-3.08 0 l-6.84 -30 l3.6 0 l4.6 21.96 z M91.48400000000001 40 l0 -30 l14.72 0 l0 3.76 l-11.36 0 l0 9.24 l11.28 0 l0 3.32 l-11.28 0 l0 9.92 l11.64 0 l0 3.76 l-15 0 z M109.89500000000001 40 l0 -30 l14.72 0 l0 3.76 l-11.36 0 l0 9.24 l11.28 0 l0 3.32 l-11.28 0 l0 9.92 l11.64 0 l0 3.76 l-15 0 z M142.786 33.64 c-0.18668 0.85332 -0.45992 1.6598 -0.81992 2.4198 s-0.83332 1.4333 -1.42 2.02 s-1.3 1.0534 -2.14 1.4 s-1.82 0.52 -2.94 0.52 l-7.32 0 l0 -30 l7.04 0 c1.9733 0 3.66 0.5 5.06 1.5 s2.3 2.6733 2.7 5.02 c0.05332 0.42668 0.10664 1.0734 0.15996 1.94 s0.09332 1.8534 0.12 2.96 s0.04 2.2734 0.04 3.5 s-0.02 2.4067 -0.06 3.54 s-0.09332 2.16 -0.16 3.08 s-0.15336 1.62 -0.26004 2.1 z M134.866 13.52 l-3.44 0.000078124 l0 22.88 l3.96 0 c1.04 0 1.8933 -0.36668 2.56 -1.1 s1.16 -1.54 1.48 -2.42 c0.10668 -0.29332 0.19336 -0.85332 0.26004 -1.68 s0.12 -1.78 0.16 -2.86 s0.06 -2.22 0.06 -3.42 s-0.01332 -2.3333 -0.04 -3.4 s-0.07336 -2 -0.14004 -2.8 s-0.14 -1.3467 -0.22 -1.64 c-0.16 -0.42668 -0.34 -0.85336 -0.54 -1.28 s-0.47332 -0.81336 -0.82 -1.16 s-0.78 -0.62 -1.3 -0.82 s-1.18 -0.3 -1.98 -0.3 z">
        </path>
    </g>
</svg>